<svg width="80" height="80" viewBox="0 0 80 80" fill="none" xmlns="http://www.w3.org/2000/svg">
<circle cx="40" cy="40" r="40" fill="#428BF9"/>
<g clip-path="url(#clip0_3480_465)">
<path d="M40.0004 20L56.5254 27.5H58.7504C59.082 27.5 59.3999 27.6317 59.6343 27.8661C59.8687 28.1005 60.0004 28.4185 60.0004 28.75V33.75C60.0004 34.0815 59.8687 34.3995 59.6343 34.6339C59.3999 34.8683 59.082 35 58.7504 35H57.5004V52.5C57.7796 52.5002 58.0507 52.5939 58.2704 52.766C58.4902 52.9382 58.6459 53.179 58.7129 53.45L59.9629 58.45C60.0095 58.6341 60.0133 58.8265 59.974 59.0123C59.9348 59.1981 59.8535 59.3725 59.7365 59.5221C59.6195 59.6717 59.4698 59.7925 59.2989 59.8754C59.128 59.9582 58.9404 60.0008 58.7504 60H21.2504C21.0605 60.0008 20.8729 59.9582 20.702 59.8754C20.5311 59.7925 20.3814 59.6717 20.2644 59.5221C20.1474 59.3725 20.0661 59.1981 20.0269 59.0123C19.9876 58.8265 19.9914 58.6341 20.0379 58.45L21.2879 53.45C21.3549 53.179 21.5107 52.9382 21.7305 52.766C21.9502 52.5939 22.2213 52.5002 22.5004 52.5V35H21.2504C20.9189 35 20.601 34.8683 20.3666 34.6339C20.1321 34.3995 20.0004 34.0815 20.0004 33.75V28.75C20.0004 28.4185 20.1321 28.1005 20.3666 27.8661C20.601 27.6317 20.9189 27.5 21.2504 27.5H23.4754L40.0004 20ZM29.4429 27.5H50.5604L40.0004 22.5L29.4429 27.5ZM25.0004 35V52.5H27.5004V35H25.0004ZM30.0004 35V52.5H36.2504V35H30.0004ZM38.7504 35V52.5H41.2504V35H38.7504ZM43.7504 35V52.5H50.0004V35H43.7504ZM52.5004 35V52.5H55.0004V35H52.5004ZM57.5004 32.5V30H22.5004V32.5H57.5004ZM56.5254 55H23.4754L22.8504 57.5H57.1504L56.5254 55Z" fill="white"/>
</g>
<defs>
<clipPath id="clip0_3480_465">
<rect width="40" height="40" fill="white" transform="translate(20 20)"/>
</clipPath>
</defs>
</svg>
