<svg width="80" height="80" viewBox="0 0 80 80" fill="none" xmlns="http://www.w3.org/2000/svg">
<circle cx="40" cy="40" r="40" fill="#428BF9"/>
<path d="M26.125 17.3438H22.5625C20.6728 17.3438 18.8606 18.0944 17.5244 19.4306C16.1882 20.7668 15.4375 22.5791 15.4375 24.4688V61.875C15.4375 63.7647 16.1882 65.5769 17.5244 66.9131C18.8606 68.2493 20.6728 69 22.5625 69H58.1875C60.0772 69 61.8894 68.2493 63.2256 66.9131C64.5618 65.5769 65.3125 63.7647 65.3125 61.875V24.4688C65.3125 22.5791 64.5618 20.7668 63.2256 19.4306C61.8894 18.0944 60.0772 17.3438 58.1875 17.3438H54.625V20.9062H58.1875C59.1323 20.9062 60.0385 21.2816 60.7066 21.9497C61.3747 22.6178 61.75 23.5239 61.75 24.4688V61.875C61.75 62.8198 61.3747 63.726 60.7066 64.3941C60.0385 65.0622 59.1323 65.4375 58.1875 65.4375H22.5625C21.6177 65.4375 20.7115 65.0622 20.0434 64.3941C19.3753 63.726 19 62.8198 19 61.875V24.4688C19 23.5239 19.3753 22.6178 20.0434 21.9497C20.7115 21.2816 21.6177 20.9062 22.5625 20.9062H26.125V17.3438Z" fill="white"/>
<path d="M45.7188 15.5625C46.1912 15.5625 46.6442 15.7502 46.9783 16.0842C47.3123 16.4183 47.5 16.8713 47.5 17.3438V20.9062C47.5 21.3787 47.3123 21.8317 46.9783 22.1658C46.6442 22.4998 46.1912 22.6875 45.7188 22.6875H35.0312C34.5588 22.6875 34.1058 22.4998 33.7717 22.1658C33.4377 21.8317 33.25 21.3787 33.25 20.9062V17.3438C33.25 16.8713 33.4377 16.4183 33.7717 16.0842C34.1058 15.7502 34.5588 15.5625 35.0312 15.5625H45.7188ZM35.0312 12C33.614 12 32.2548 12.563 31.2526 13.5651C30.2505 14.5673 29.6875 15.9265 29.6875 17.3438V20.9062C29.6875 22.3235 30.2505 23.6827 31.2526 24.6849C32.2548 25.687 33.614 26.25 35.0312 26.25H45.7188C47.136 26.25 48.4952 25.687 49.4974 24.6849C50.4995 23.6827 51.0625 22.3235 51.0625 20.9062V17.3438C51.0625 15.9265 50.4995 14.5673 49.4974 13.5651C48.4952 12.563 47.136 12 45.7188 12H35.0312Z" fill="#BBD5FD"/>
<path d="M27.875 38.5161L36.5575 50.8397C36.9559 51.4051 37.7941 51.4051 38.1925 50.8397L52.875 30" stroke="white" stroke-width="2" stroke-linecap="round"/>
</svg>
