<svg width="80" height="80" viewBox="0 0 80 80" fill="none" xmlns="http://www.w3.org/2000/svg">
<circle cx="40" cy="40" r="40" fill="#428BF9"/>
<path d="M19 38C19 35.2386 21.2386 33 24 33H67V55C67 57.7614 64.7614 60 62 60H19V38Z" fill="white" fill-opacity="0.64"/>
<path d="M16 32C16 29.2386 18.2386 27 21 27H64V49C64 51.7614 61.7614 54 59 54H16V32Z" fill="white"/>
<path d="M44.8711 43.6523V46.4297H38.6836V51H33.9551V46.4297H31.2656V43.6523H33.9551V41.9297H31.2656V39.1523H33.9551V27.6738H39.8262C40.9043 27.6738 41.877 27.7266 42.7441 27.832C43.623 27.9375 44.502 28.1484 45.3809 28.4648C46.2715 28.7695 47.0098 29.1797 47.5957 29.6953C48.1934 30.1992 48.6797 30.8848 49.0547 31.752C49.4297 32.6191 49.6172 33.6328 49.6172 34.793C49.6172 36.0352 49.3887 37.125 48.9316 38.0625C48.4746 38.9883 47.8242 39.7324 46.9805 40.2949C46.1484 40.8457 45.1875 41.2559 44.0977 41.5254C43.0195 41.7949 41.8125 41.9297 40.4766 41.9297H38.6836V43.6523H44.8711ZM40.4766 31.6641H38.6836V39.1523H39.8613C40.5996 39.1523 41.25 39.0938 41.8125 38.9766C42.3867 38.8594 42.9141 38.6602 43.3945 38.3789C43.875 38.0977 44.2383 37.6992 44.4844 37.1836C44.7422 36.668 44.8711 36.041 44.8711 35.3027C44.8711 32.877 43.4062 31.6641 40.4766 31.6641Z" fill="#428BF9"/>
</svg>
