<svg width="80" height="80" viewBox="0 0 80 80" fill="none" xmlns="http://www.w3.org/2000/svg">
<circle cx="40" cy="40" r="40" fill="#428BF9"/>
<path d="M46.6543 44.7949V48.6523H38.0605V55H31.4932V48.6523H27.7578V44.7949H31.4932V42.4023H27.7578V38.5449H31.4932V22.6025H39.6475C41.1449 22.6025 42.4958 22.6758 43.7002 22.8223C44.9209 22.9688 46.1416 23.2617 47.3623 23.7012C48.5993 24.1243 49.6247 24.694 50.4385 25.4102C51.2686 26.11 51.944 27.0622 52.4648 28.2666C52.9857 29.471 53.2461 30.8789 53.2461 32.4902C53.2461 34.2155 52.9287 35.7292 52.2939 37.0312C51.6592 38.3171 50.7559 39.3506 49.584 40.1318C48.4284 40.8968 47.0938 41.4665 45.5801 41.8408C44.0827 42.2152 42.4062 42.4023 40.5508 42.4023H38.0605V44.7949H46.6543ZM40.5508 28.1445H38.0605V38.5449H39.6963C40.7217 38.5449 41.625 38.4635 42.4062 38.3008C43.2038 38.138 43.9362 37.8613 44.6035 37.4707C45.2708 37.0801 45.7754 36.5267 46.1172 35.8105C46.4753 35.0944 46.6543 34.2236 46.6543 33.1982C46.6543 29.8291 44.6198 28.1445 40.5508 28.1445Z" fill="white"/>
</svg>
