<svg width="51" height="52" viewBox="0 0 51 52" fill="none" xmlns="http://www.w3.org/2000/svg">
<g clip-path="url(#clip0_3361_2)">
<path d="M0 0.293701H51V26.0318C51 32.6299 47.4923 38.727 41.7982 42.0264L25.5 51.4702L9.20191 42.0264C3.50771 38.727 5.84525e-06 32.6299 5.84525e-06 26.0318L0 0.293701Z" fill="#FFDD2D"/>
<path fill-rule="evenodd" clip-rule="evenodd" d="M14.069 14.4114V22.4558C15.153 21.2134 17.124 20.3727 19.3775 20.3727H21.8264V29.7243C21.8264 32.2123 21.1603 34.39 20.1719 35.5878H30.8244C29.838 34.3887 29.1734 32.2139 29.1734 29.729V20.3727H31.6225C33.876 20.3727 35.847 21.2134 36.931 22.4558V14.4114H14.069Z" fill="#333333"/>
</g>
<defs>
<clipPath id="clip0_3361_2">
<rect width="51" height="52" fill="white"/>
</clipPath>
</defs>
</svg>
